<mxfile host="app.diagrams.net" agent="Mozilla/5.0 (Windows NT 10.0; Win64; x64) AppleWebKit/537.36 (KHTML, like Gecko) Chrome/129.0.0.0 Safari/537.36" version="24.7.17">
  <diagram id="C5RBs43oDa-KdzZeNtuy" name="Page-1">
    <mxGraphModel grid="1" page="1" gridSize="10" guides="1" tooltips="1" connect="1" arrows="1" fold="1" pageScale="1" pageWidth="827" pageHeight="1169" background="none" math="0" shadow="0">
      <root>
        <mxCell id="WIyWlLk6GJQsqaUBKTNV-0" />
        <mxCell id="WIyWlLk6GJQsqaUBKTNV-1" parent="WIyWlLk6GJQsqaUBKTNV-0" />
        <mxCell id="7oODVqWEoE9-mHDGX5qX-141" style="edgeStyle=none;curved=1;rounded=0;orthogonalLoop=1;jettySize=auto;html=1;exitX=0.5;exitY=1;exitDx=0;exitDy=0;exitPerimeter=0;entryX=0.5;entryY=0;entryDx=0;entryDy=0;fontFamily=Helvetica;fontSize=12;fontColor=default;startSize=8;endSize=8;" edge="1" parent="WIyWlLk6GJQsqaUBKTNV-1" source="IvPK4ttRJdL92VeRlG2l-0" target="7oODVqWEoE9-mHDGX5qX-55">
          <mxGeometry relative="1" as="geometry" />
        </mxCell>
        <mxCell id="IvPK4ttRJdL92VeRlG2l-0" value="Mulai" style="strokeWidth=2;html=1;shape=mxgraph.flowchart.terminator;whiteSpace=wrap;fillColor=#e1d5e7;strokeColor=#9673a6;" vertex="1" parent="WIyWlLk6GJQsqaUBKTNV-1">
          <mxGeometry x="175" width="90" height="40" as="geometry" />
        </mxCell>
        <mxCell id="7oODVqWEoE9-mHDGX5qX-59" style="edgeStyle=orthogonalEdgeStyle;rounded=0;orthogonalLoop=1;jettySize=auto;html=1;exitX=0.5;exitY=1;exitDx=0;exitDy=0;entryX=0.5;entryY=0;entryDx=0;entryDy=0;fontFamily=Helvetica;fontSize=12;fontColor=default;startSize=8;endSize=8;" edge="1" parent="WIyWlLk6GJQsqaUBKTNV-1" source="7oODVqWEoE9-mHDGX5qX-50" target="7oODVqWEoE9-mHDGX5qX-61">
          <mxGeometry relative="1" as="geometry">
            <mxPoint x="220" y="220" as="targetPoint" />
          </mxGeometry>
        </mxCell>
        <mxCell id="7oODVqWEoE9-mHDGX5qX-50" value="Menu Utama" style="rounded=1;whiteSpace=wrap;html=1;absoluteArcSize=1;arcSize=14;strokeWidth=2;strokeColor=#6c8ebf;align=center;verticalAlign=middle;fontFamily=Helvetica;fontSize=12;fontColor=default;fillColor=#dae8fc;" vertex="1" parent="WIyWlLk6GJQsqaUBKTNV-1">
          <mxGeometry x="160" y="140" width="120" height="40" as="geometry" />
        </mxCell>
        <mxCell id="7oODVqWEoE9-mHDGX5qX-57" style="edgeStyle=orthogonalEdgeStyle;rounded=0;orthogonalLoop=1;jettySize=auto;html=1;exitX=0.5;exitY=1;exitDx=0;exitDy=0;entryX=0.5;entryY=0;entryDx=0;entryDy=0;fontFamily=Helvetica;fontSize=12;fontColor=default;startSize=8;endSize=8;" edge="1" parent="WIyWlLk6GJQsqaUBKTNV-1" source="7oODVqWEoE9-mHDGX5qX-55" target="7oODVqWEoE9-mHDGX5qX-50">
          <mxGeometry relative="1" as="geometry" />
        </mxCell>
        <mxCell id="7oODVqWEoE9-mHDGX5qX-55" value="Menu Login" style="rounded=1;whiteSpace=wrap;html=1;absoluteArcSize=1;arcSize=14;strokeWidth=2;strokeColor=#6c8ebf;align=center;verticalAlign=middle;fontFamily=Helvetica;fontSize=12;fontColor=default;fillColor=#dae8fc;" vertex="1" parent="WIyWlLk6GJQsqaUBKTNV-1">
          <mxGeometry x="160" y="70" width="120" height="40" as="geometry" />
        </mxCell>
        <mxCell id="7oODVqWEoE9-mHDGX5qX-56" style="edgeStyle=none;curved=1;rounded=0;orthogonalLoop=1;jettySize=auto;html=1;entryX=0;entryY=0.5;entryDx=0;entryDy=0;fontFamily=Helvetica;fontSize=12;fontColor=default;startSize=8;endSize=8;" edge="1" parent="WIyWlLk6GJQsqaUBKTNV-1" source="7oODVqWEoE9-mHDGX5qX-50" target="7oODVqWEoE9-mHDGX5qX-50">
          <mxGeometry relative="1" as="geometry" />
        </mxCell>
        <mxCell id="7oODVqWEoE9-mHDGX5qX-65" value="" style="edgeStyle=orthogonalEdgeStyle;rounded=0;orthogonalLoop=1;jettySize=auto;html=1;fontFamily=Helvetica;fontSize=12;fontColor=default;startSize=8;endSize=8;" edge="1" parent="WIyWlLk6GJQsqaUBKTNV-1" source="7oODVqWEoE9-mHDGX5qX-61" target="7oODVqWEoE9-mHDGX5qX-64">
          <mxGeometry relative="1" as="geometry" />
        </mxCell>
        <mxCell id="7oODVqWEoE9-mHDGX5qX-61" value="input pilihan" style="shape=parallelogram;html=1;strokeWidth=2;perimeter=parallelogramPerimeter;whiteSpace=wrap;rounded=1;arcSize=12;size=0.23;strokeColor=#6c8ebf;align=center;verticalAlign=middle;fontFamily=Helvetica;fontSize=12;fontColor=default;fillColor=#dae8fc;" vertex="1" parent="WIyWlLk6GJQsqaUBKTNV-1">
          <mxGeometry x="160" y="210" width="120" height="40" as="geometry" />
        </mxCell>
        <mxCell id="7oODVqWEoE9-mHDGX5qX-67" value="" style="edgeStyle=none;curved=1;rounded=0;orthogonalLoop=1;jettySize=auto;html=1;fontFamily=Helvetica;fontSize=12;fontColor=default;startSize=8;endSize=8;" edge="1" parent="WIyWlLk6GJQsqaUBKTNV-1" source="7oODVqWEoE9-mHDGX5qX-64" target="7oODVqWEoE9-mHDGX5qX-66">
          <mxGeometry relative="1" as="geometry" />
        </mxCell>
        <mxCell id="7oODVqWEoE9-mHDGX5qX-73" value="Yes" style="edgeLabel;html=1;align=center;verticalAlign=middle;resizable=0;points=[];fontSize=12;strokeColor=#6c8ebf;strokeWidth=2;fontFamily=Helvetica;fontColor=default;fillColor=#dae8fc;" connectable="0" vertex="1" parent="7oODVqWEoE9-mHDGX5qX-67">
          <mxGeometry x="-0.0467" relative="1" as="geometry">
            <mxPoint as="offset" />
          </mxGeometry>
        </mxCell>
        <mxCell id="7oODVqWEoE9-mHDGX5qX-77" value="" style="edgeStyle=none;curved=1;rounded=0;orthogonalLoop=1;jettySize=auto;html=1;fontFamily=Helvetica;fontSize=12;fontColor=default;startSize=8;endSize=8;" edge="1" parent="WIyWlLk6GJQsqaUBKTNV-1" source="7oODVqWEoE9-mHDGX5qX-64" target="7oODVqWEoE9-mHDGX5qX-76">
          <mxGeometry relative="1" as="geometry" />
        </mxCell>
        <mxCell id="7oODVqWEoE9-mHDGX5qX-78" value="No" style="edgeLabel;html=1;align=center;verticalAlign=middle;resizable=0;points=[];fontSize=12;strokeColor=#6c8ebf;strokeWidth=2;fontFamily=Helvetica;fontColor=default;fillColor=#dae8fc;" connectable="0" vertex="1" parent="7oODVqWEoE9-mHDGX5qX-77">
          <mxGeometry x="-0.168" y="-2" relative="1" as="geometry">
            <mxPoint y="-2" as="offset" />
          </mxGeometry>
        </mxCell>
        <mxCell id="7oODVqWEoE9-mHDGX5qX-64" value="pilihan == &quot;1&quot;" style="strokeWidth=2;html=1;shape=mxgraph.flowchart.decision;whiteSpace=wrap;strokeColor=#6c8ebf;align=center;verticalAlign=middle;fontFamily=Helvetica;fontSize=12;fontColor=default;fillColor=#dae8fc;" vertex="1" parent="WIyWlLk6GJQsqaUBKTNV-1">
          <mxGeometry x="170" y="285" width="100" height="60" as="geometry" />
        </mxCell>
        <mxCell id="7oODVqWEoE9-mHDGX5qX-148" style="edgeStyle=none;curved=1;rounded=0;orthogonalLoop=1;jettySize=auto;html=1;exitX=0.5;exitY=1;exitDx=0;exitDy=0;entryX=0.5;entryY=0;entryDx=0;entryDy=0;fontFamily=Helvetica;fontSize=12;fontColor=default;startSize=8;endSize=8;" edge="1" parent="WIyWlLk6GJQsqaUBKTNV-1" source="7oODVqWEoE9-mHDGX5qX-66" target="7oODVqWEoE9-mHDGX5qX-147">
          <mxGeometry relative="1" as="geometry" />
        </mxCell>
        <mxCell id="7oODVqWEoE9-mHDGX5qX-66" value="Menu Forum" style="rounded=1;whiteSpace=wrap;html=1;absoluteArcSize=1;arcSize=14;strokeWidth=2;strokeColor=#6c8ebf;align=center;verticalAlign=middle;fontFamily=Helvetica;fontSize=12;fontColor=default;fillColor=#dae8fc;" vertex="1" parent="WIyWlLk6GJQsqaUBKTNV-1">
          <mxGeometry x="170" y="395" width="100" height="40" as="geometry" />
        </mxCell>
        <mxCell id="7oODVqWEoE9-mHDGX5qX-82" value="" style="edgeStyle=none;curved=1;rounded=0;orthogonalLoop=1;jettySize=auto;html=1;fontFamily=Helvetica;fontSize=12;fontColor=default;startSize=8;endSize=8;entryX=-0.024;entryY=0.497;entryDx=0;entryDy=0;entryPerimeter=0;" edge="1" parent="WIyWlLk6GJQsqaUBKTNV-1" source="7oODVqWEoE9-mHDGX5qX-76" target="7oODVqWEoE9-mHDGX5qX-81">
          <mxGeometry relative="1" as="geometry">
            <mxPoint x="500" y="315" as="targetPoint" />
          </mxGeometry>
        </mxCell>
        <mxCell id="7oODVqWEoE9-mHDGX5qX-89" value="No" style="edgeLabel;html=1;align=center;verticalAlign=middle;resizable=0;points=[];fontSize=12;strokeColor=#6c8ebf;strokeWidth=2;fontFamily=Helvetica;fontColor=default;fillColor=#dae8fc;" connectable="0" vertex="1" parent="7oODVqWEoE9-mHDGX5qX-82">
          <mxGeometry x="-0.1627" y="1" relative="1" as="geometry">
            <mxPoint as="offset" />
          </mxGeometry>
        </mxCell>
        <mxCell id="7oODVqWEoE9-mHDGX5qX-139" style="edgeStyle=none;curved=1;rounded=0;orthogonalLoop=1;jettySize=auto;html=1;exitX=0.5;exitY=0;exitDx=0;exitDy=0;exitPerimeter=0;entryX=0.5;entryY=1;entryDx=0;entryDy=0;fontFamily=Helvetica;fontSize=12;fontColor=default;startSize=8;endSize=8;" edge="1" parent="WIyWlLk6GJQsqaUBKTNV-1" source="7oODVqWEoE9-mHDGX5qX-76" target="7oODVqWEoE9-mHDGX5qX-79">
          <mxGeometry relative="1" as="geometry" />
        </mxCell>
        <mxCell id="7oODVqWEoE9-mHDGX5qX-140" value="Yes" style="edgeLabel;html=1;align=center;verticalAlign=middle;resizable=0;points=[];fontSize=12;strokeColor=#6c8ebf;strokeWidth=2;fontFamily=Helvetica;fontColor=default;fillColor=#dae8fc;" connectable="0" vertex="1" parent="7oODVqWEoE9-mHDGX5qX-139">
          <mxGeometry x="-0.225" y="1" relative="1" as="geometry">
            <mxPoint x="1" as="offset" />
          </mxGeometry>
        </mxCell>
        <mxCell id="7oODVqWEoE9-mHDGX5qX-76" value="pilihan == &quot;2&quot;&lt;div&gt;AND&lt;br&gt;&lt;div&gt;admin&lt;/div&gt;&lt;/div&gt;" style="strokeWidth=2;html=1;shape=mxgraph.flowchart.decision;whiteSpace=wrap;strokeColor=#6c8ebf;align=center;verticalAlign=middle;fontFamily=Helvetica;fontSize=12;fontColor=default;fillColor=#dae8fc;" vertex="1" parent="WIyWlLk6GJQsqaUBKTNV-1">
          <mxGeometry x="320" y="280" width="130" height="70" as="geometry" />
        </mxCell>
        <mxCell id="7oODVqWEoE9-mHDGX5qX-136" style="edgeStyle=orthogonalEdgeStyle;rounded=0;orthogonalLoop=1;jettySize=auto;html=1;exitX=0.5;exitY=0;exitDx=0;exitDy=0;entryX=1;entryY=0.5;entryDx=0;entryDy=0;fontFamily=Helvetica;fontSize=12;fontColor=default;startSize=8;endSize=8;" edge="1" parent="WIyWlLk6GJQsqaUBKTNV-1" source="7oODVqWEoE9-mHDGX5qX-79" target="7oODVqWEoE9-mHDGX5qX-50">
          <mxGeometry relative="1" as="geometry" />
        </mxCell>
        <mxCell id="7oODVqWEoE9-mHDGX5qX-79" value="Dashboard" style="rounded=1;whiteSpace=wrap;html=1;absoluteArcSize=1;arcSize=14;strokeWidth=2;strokeColor=#6c8ebf;align=center;verticalAlign=middle;fontFamily=Helvetica;fontSize=12;fontColor=default;fillColor=#dae8fc;" vertex="1" parent="WIyWlLk6GJQsqaUBKTNV-1">
          <mxGeometry x="335" y="200" width="100" height="40" as="geometry" />
        </mxCell>
        <mxCell id="7oODVqWEoE9-mHDGX5qX-87" style="edgeStyle=none;curved=1;rounded=0;orthogonalLoop=1;jettySize=auto;html=1;exitX=0.5;exitY=1;exitDx=0;exitDy=0;exitPerimeter=0;fontFamily=Helvetica;fontSize=12;fontColor=default;startSize=8;endSize=8;entryX=0.5;entryY=0;entryDx=0;entryDy=0;" edge="1" parent="WIyWlLk6GJQsqaUBKTNV-1" target="7oODVqWEoE9-mHDGX5qX-86">
          <mxGeometry relative="1" as="geometry">
            <mxPoint x="565" y="355" as="sourcePoint" />
            <mxPoint x="565" y="395" as="targetPoint" />
          </mxGeometry>
        </mxCell>
        <mxCell id="7oODVqWEoE9-mHDGX5qX-114" value="Yes" style="edgeLabel;html=1;align=center;verticalAlign=middle;resizable=0;points=[];fontSize=12;strokeColor=#6c8ebf;strokeWidth=2;fontFamily=Helvetica;fontColor=default;fillColor=#dae8fc;" connectable="0" vertex="1" parent="7oODVqWEoE9-mHDGX5qX-87">
          <mxGeometry x="-0.282" relative="1" as="geometry">
            <mxPoint as="offset" />
          </mxGeometry>
        </mxCell>
        <mxCell id="7oODVqWEoE9-mHDGX5qX-91" style="edgeStyle=orthogonalEdgeStyle;rounded=0;orthogonalLoop=1;jettySize=auto;html=1;exitX=0.5;exitY=0;exitDx=0;exitDy=0;exitPerimeter=0;entryX=1;entryY=0.5;entryDx=0;entryDy=0;fontFamily=Helvetica;fontSize=12;fontColor=default;startSize=8;endSize=8;" edge="1" parent="WIyWlLk6GJQsqaUBKTNV-1" source="7oODVqWEoE9-mHDGX5qX-214" target="7oODVqWEoE9-mHDGX5qX-50">
          <mxGeometry relative="1" as="geometry">
            <mxPoint x="565" y="300" as="sourcePoint" />
          </mxGeometry>
        </mxCell>
        <mxCell id="7oODVqWEoE9-mHDGX5qX-113" value="No" style="edgeLabel;html=1;align=center;verticalAlign=middle;resizable=0;points=[];fontSize=12;strokeColor=#6c8ebf;strokeWidth=2;fontFamily=Helvetica;fontColor=default;fillColor=#dae8fc;" connectable="0" vertex="1" parent="7oODVqWEoE9-mHDGX5qX-91">
          <mxGeometry x="-0.8899" relative="1" as="geometry">
            <mxPoint as="offset" />
          </mxGeometry>
        </mxCell>
        <mxCell id="7oODVqWEoE9-mHDGX5qX-81" value="pilihan == &quot;3&quot;&lt;div&gt;AND&lt;br&gt;&lt;div&gt;admin&lt;/div&gt;&lt;/div&gt;" style="strokeWidth=2;html=1;shape=mxgraph.flowchart.decision;whiteSpace=wrap;strokeColor=#6c8ebf;align=center;verticalAlign=middle;fontFamily=Helvetica;fontSize=12;fontColor=default;fillColor=#dae8fc;" vertex="1" parent="WIyWlLk6GJQsqaUBKTNV-1">
          <mxGeometry x="500" y="275" width="130" height="80" as="geometry" />
        </mxCell>
        <mxCell id="7oODVqWEoE9-mHDGX5qX-127" style="edgeStyle=none;curved=1;rounded=0;orthogonalLoop=1;jettySize=auto;html=1;exitX=0.5;exitY=1;exitDx=0;exitDy=0;entryX=0.5;entryY=0;entryDx=0;entryDy=0;fontFamily=Helvetica;fontSize=12;fontColor=default;startSize=8;endSize=8;" edge="1" parent="WIyWlLk6GJQsqaUBKTNV-1" source="7oODVqWEoE9-mHDGX5qX-86">
          <mxGeometry relative="1" as="geometry">
            <mxPoint x="565" y="470" as="targetPoint" />
          </mxGeometry>
        </mxCell>
        <mxCell id="7oODVqWEoE9-mHDGX5qX-86" value="Manajemen Pengguna" style="rounded=1;whiteSpace=wrap;html=1;absoluteArcSize=1;arcSize=14;strokeWidth=2;strokeColor=#6c8ebf;align=center;verticalAlign=middle;fontFamily=Helvetica;fontSize=12;fontColor=default;fillColor=#dae8fc;" vertex="1" parent="WIyWlLk6GJQsqaUBKTNV-1">
          <mxGeometry x="515" y="395" width="100" height="40" as="geometry" />
        </mxCell>
        <mxCell id="7oODVqWEoE9-mHDGX5qX-156" style="edgeStyle=none;curved=1;rounded=0;orthogonalLoop=1;jettySize=auto;html=1;exitX=0.5;exitY=1;exitDx=0;exitDy=0;entryX=0.5;entryY=0;entryDx=0;entryDy=0;fontFamily=Helvetica;fontSize=12;fontColor=default;startSize=8;endSize=8;" edge="1" parent="WIyWlLk6GJQsqaUBKTNV-1" source="7oODVqWEoE9-mHDGX5qX-99" target="7oODVqWEoE9-mHDGX5qX-155">
          <mxGeometry relative="1" as="geometry" />
        </mxCell>
        <mxCell id="7oODVqWEoE9-mHDGX5qX-99" value="Menu Postingan Forum" style="rounded=1;whiteSpace=wrap;html=1;absoluteArcSize=1;arcSize=14;strokeWidth=2;strokeColor=#6c8ebf;align=center;verticalAlign=middle;fontFamily=Helvetica;fontSize=12;fontColor=default;fillColor=#dae8fc;" vertex="1" parent="WIyWlLk6GJQsqaUBKTNV-1">
          <mxGeometry x="150" y="740" width="140" height="40" as="geometry" />
        </mxCell>
        <mxCell id="7oODVqWEoE9-mHDGX5qX-180" style="edgeStyle=none;curved=1;rounded=0;orthogonalLoop=1;jettySize=auto;html=1;exitX=0.5;exitY=1;exitDx=0;exitDy=0;entryX=0.5;entryY=0;entryDx=0;entryDy=0;fontFamily=Helvetica;fontSize=12;fontColor=default;startSize=8;endSize=8;" edge="1" parent="WIyWlLk6GJQsqaUBKTNV-1" source="7oODVqWEoE9-mHDGX5qX-124" target="7oODVqWEoE9-mHDGX5qX-175">
          <mxGeometry relative="1" as="geometry" />
        </mxCell>
        <mxCell id="7oODVqWEoE9-mHDGX5qX-124" value="Postingan" style="rounded=1;whiteSpace=wrap;html=1;absoluteArcSize=1;arcSize=14;strokeWidth=2;strokeColor=#6c8ebf;align=center;verticalAlign=middle;fontFamily=Helvetica;fontSize=12;fontColor=default;fillColor=#dae8fc;" vertex="1" parent="WIyWlLk6GJQsqaUBKTNV-1">
          <mxGeometry x="150" y="1090" width="140" height="40" as="geometry" />
        </mxCell>
        <mxCell id="7oODVqWEoE9-mHDGX5qX-260" style="edgeStyle=none;curved=1;rounded=0;orthogonalLoop=1;jettySize=auto;html=1;exitX=1;exitY=0.5;exitDx=0;exitDy=0;exitPerimeter=0;entryX=0;entryY=0.5;entryDx=0;entryDy=0;fontFamily=Helvetica;fontSize=12;fontColor=default;startSize=8;endSize=8;" edge="1" parent="WIyWlLk6GJQsqaUBKTNV-1" source="7oODVqWEoE9-mHDGX5qX-129" target="7oODVqWEoE9-mHDGX5qX-188">
          <mxGeometry relative="1" as="geometry" />
        </mxCell>
        <mxCell id="7oODVqWEoE9-mHDGX5qX-129" value="pilihan == &quot;1&quot;" style="strokeWidth=2;html=1;shape=mxgraph.flowchart.decision;whiteSpace=wrap;strokeColor=#6c8ebf;align=center;verticalAlign=middle;fontFamily=Helvetica;fontSize=12;fontColor=default;fillColor=#dae8fc;" vertex="1" parent="WIyWlLk6GJQsqaUBKTNV-1">
          <mxGeometry x="515" y="545" width="100" height="60" as="geometry" />
        </mxCell>
        <mxCell id="7oODVqWEoE9-mHDGX5qX-131" value="input pilihan" style="shape=parallelogram;html=1;strokeWidth=2;perimeter=parallelogramPerimeter;whiteSpace=wrap;rounded=1;arcSize=12;size=0.23;strokeColor=#6c8ebf;align=center;verticalAlign=middle;fontFamily=Helvetica;fontSize=12;fontColor=default;fillColor=#dae8fc;" vertex="1" parent="WIyWlLk6GJQsqaUBKTNV-1">
          <mxGeometry x="505" y="470" width="120" height="40" as="geometry" />
        </mxCell>
        <mxCell id="7oODVqWEoE9-mHDGX5qX-132" style="edgeStyle=none;curved=1;rounded=0;orthogonalLoop=1;jettySize=auto;html=1;exitX=0.5;exitY=1;exitDx=0;exitDy=0;entryX=0.5;entryY=0;entryDx=0;entryDy=0;entryPerimeter=0;fontFamily=Helvetica;fontSize=12;fontColor=default;startSize=8;endSize=8;" edge="1" parent="WIyWlLk6GJQsqaUBKTNV-1" source="7oODVqWEoE9-mHDGX5qX-131" target="7oODVqWEoE9-mHDGX5qX-129">
          <mxGeometry relative="1" as="geometry" />
        </mxCell>
        <mxCell id="7oODVqWEoE9-mHDGX5qX-151" style="edgeStyle=none;curved=1;rounded=0;orthogonalLoop=1;jettySize=auto;html=1;exitX=1;exitY=0.5;exitDx=0;exitDy=0;exitPerimeter=0;entryX=0;entryY=0.5;entryDx=0;entryDy=0;fontFamily=Helvetica;fontSize=12;fontColor=default;startSize=8;endSize=8;" edge="1" parent="WIyWlLk6GJQsqaUBKTNV-1" source="7oODVqWEoE9-mHDGX5qX-143" target="7oODVqWEoE9-mHDGX5qX-150">
          <mxGeometry relative="1" as="geometry" />
        </mxCell>
        <mxCell id="7oODVqWEoE9-mHDGX5qX-153" value="Yes" style="edgeLabel;html=1;align=center;verticalAlign=middle;resizable=0;points=[];fontSize=12;strokeColor=#6c8ebf;strokeWidth=2;fontFamily=Helvetica;fontColor=default;fillColor=#dae8fc;" connectable="0" vertex="1" parent="7oODVqWEoE9-mHDGX5qX-151">
          <mxGeometry x="-0.0752" y="-1" relative="1" as="geometry">
            <mxPoint x="-3" y="-1" as="offset" />
          </mxGeometry>
        </mxCell>
        <mxCell id="7oODVqWEoE9-mHDGX5qX-143" value="pilihan == &quot;t&quot;" style="strokeWidth=2;html=1;shape=mxgraph.flowchart.decision;whiteSpace=wrap;strokeColor=#6c8ebf;align=center;verticalAlign=middle;fontFamily=Helvetica;fontSize=12;fontColor=default;fillColor=#dae8fc;" vertex="1" parent="WIyWlLk6GJQsqaUBKTNV-1">
          <mxGeometry x="170" y="545" width="100" height="60" as="geometry" />
        </mxCell>
        <mxCell id="7oODVqWEoE9-mHDGX5qX-147" value="input pilihan" style="shape=parallelogram;html=1;strokeWidth=2;perimeter=parallelogramPerimeter;whiteSpace=wrap;rounded=1;arcSize=12;size=0.23;strokeColor=#6c8ebf;align=center;verticalAlign=middle;fontFamily=Helvetica;fontSize=12;fontColor=default;fillColor=#dae8fc;" vertex="1" parent="WIyWlLk6GJQsqaUBKTNV-1">
          <mxGeometry x="165" y="470" width="110" height="40" as="geometry" />
        </mxCell>
        <mxCell id="7oODVqWEoE9-mHDGX5qX-149" style="edgeStyle=none;curved=1;rounded=0;orthogonalLoop=1;jettySize=auto;html=1;exitX=0.5;exitY=1;exitDx=0;exitDy=0;entryX=0.5;entryY=0;entryDx=0;entryDy=0;entryPerimeter=0;fontFamily=Helvetica;fontSize=12;fontColor=default;startSize=8;endSize=8;" edge="1" parent="WIyWlLk6GJQsqaUBKTNV-1" source="7oODVqWEoE9-mHDGX5qX-147" target="7oODVqWEoE9-mHDGX5qX-143">
          <mxGeometry relative="1" as="geometry" />
        </mxCell>
        <mxCell id="7oODVqWEoE9-mHDGX5qX-152" style="edgeStyle=orthogonalEdgeStyle;rounded=0;orthogonalLoop=1;jettySize=auto;html=1;exitX=0.5;exitY=0;exitDx=0;exitDy=0;entryX=1;entryY=0.5;entryDx=0;entryDy=0;fontFamily=Helvetica;fontSize=12;fontColor=default;startSize=8;endSize=8;" edge="1" parent="WIyWlLk6GJQsqaUBKTNV-1" source="7oODVqWEoE9-mHDGX5qX-150" target="7oODVqWEoE9-mHDGX5qX-66">
          <mxGeometry relative="1" as="geometry" />
        </mxCell>
        <mxCell id="7oODVqWEoE9-mHDGX5qX-150" value="Buat Forum" style="rounded=1;whiteSpace=wrap;html=1;absoluteArcSize=1;arcSize=14;strokeWidth=2;strokeColor=#6c8ebf;align=center;verticalAlign=middle;fontFamily=Helvetica;fontSize=12;fontColor=default;fillColor=#dae8fc;" vertex="1" parent="WIyWlLk6GJQsqaUBKTNV-1">
          <mxGeometry x="320" y="555" width="140" height="40" as="geometry" />
        </mxCell>
        <mxCell id="7oODVqWEoE9-mHDGX5qX-155" value="input pilihan" style="shape=parallelogram;html=1;strokeWidth=2;perimeter=parallelogramPerimeter;whiteSpace=wrap;rounded=1;arcSize=12;size=0.23;strokeColor=#6c8ebf;align=center;verticalAlign=middle;fontFamily=Helvetica;fontSize=12;fontColor=default;fillColor=#dae8fc;" vertex="1" parent="WIyWlLk6GJQsqaUBKTNV-1">
          <mxGeometry x="160" y="820" width="120" height="40" as="geometry" />
        </mxCell>
        <mxCell id="7oODVqWEoE9-mHDGX5qX-166" style="edgeStyle=orthogonalEdgeStyle;rounded=0;orthogonalLoop=1;jettySize=auto;html=1;exitX=1;exitY=0.5;exitDx=0;exitDy=0;exitPerimeter=0;entryX=0;entryY=0.5;entryDx=0;entryDy=0;fontFamily=Helvetica;fontSize=12;fontColor=default;startSize=8;endSize=8;" edge="1" parent="WIyWlLk6GJQsqaUBKTNV-1" source="7oODVqWEoE9-mHDGX5qX-159" target="7oODVqWEoE9-mHDGX5qX-163">
          <mxGeometry relative="1" as="geometry">
            <mxPoint x="315" y="920" as="targetPoint" />
          </mxGeometry>
        </mxCell>
        <mxCell id="7oODVqWEoE9-mHDGX5qX-167" value="Yes" style="edgeLabel;html=1;align=center;verticalAlign=middle;resizable=0;points=[];fontSize=12;strokeColor=#6c8ebf;strokeWidth=2;fontFamily=Helvetica;fontColor=default;fillColor=#dae8fc;" connectable="0" vertex="1" parent="7oODVqWEoE9-mHDGX5qX-166">
          <mxGeometry x="-0.0969" relative="1" as="geometry">
            <mxPoint as="offset" />
          </mxGeometry>
        </mxCell>
        <mxCell id="7oODVqWEoE9-mHDGX5qX-159" value="pilihan == &quot;t&quot;" style="strokeWidth=2;html=1;shape=mxgraph.flowchart.decision;whiteSpace=wrap;strokeColor=#6c8ebf;align=center;verticalAlign=middle;fontFamily=Helvetica;fontSize=12;fontColor=default;fillColor=#dae8fc;" vertex="1" parent="WIyWlLk6GJQsqaUBKTNV-1">
          <mxGeometry x="170" y="890" width="100" height="60" as="geometry" />
        </mxCell>
        <mxCell id="7oODVqWEoE9-mHDGX5qX-160" style="edgeStyle=none;curved=1;rounded=0;orthogonalLoop=1;jettySize=auto;html=1;exitX=0.5;exitY=1;exitDx=0;exitDy=0;entryX=0.5;entryY=0;entryDx=0;entryDy=0;entryPerimeter=0;fontFamily=Helvetica;fontSize=12;fontColor=default;startSize=8;endSize=8;" edge="1" parent="WIyWlLk6GJQsqaUBKTNV-1" source="7oODVqWEoE9-mHDGX5qX-155" target="7oODVqWEoE9-mHDGX5qX-159">
          <mxGeometry relative="1" as="geometry" />
        </mxCell>
        <mxCell id="7oODVqWEoE9-mHDGX5qX-165" style="edgeStyle=orthogonalEdgeStyle;rounded=0;orthogonalLoop=1;jettySize=auto;html=1;entryX=1;entryY=0.5;entryDx=0;entryDy=0;fontFamily=Helvetica;fontSize=12;fontColor=default;startSize=8;endSize=8;exitX=0.5;exitY=0;exitDx=0;exitDy=0;" edge="1" parent="WIyWlLk6GJQsqaUBKTNV-1" source="7oODVqWEoE9-mHDGX5qX-163" target="7oODVqWEoE9-mHDGX5qX-99">
          <mxGeometry relative="1" as="geometry">
            <mxPoint x="385" y="900" as="sourcePoint" />
          </mxGeometry>
        </mxCell>
        <mxCell id="7oODVqWEoE9-mHDGX5qX-163" value="Buat postingan" style="rounded=1;whiteSpace=wrap;html=1;absoluteArcSize=1;arcSize=14;strokeWidth=2;strokeColor=#6c8ebf;align=center;verticalAlign=middle;fontFamily=Helvetica;fontSize=12;fontColor=default;fillColor=#dae8fc;" vertex="1" parent="WIyWlLk6GJQsqaUBKTNV-1">
          <mxGeometry x="330" y="900" width="140" height="40" as="geometry" />
        </mxCell>
        <mxCell id="7oODVqWEoE9-mHDGX5qX-175" value="input pilihan" style="shape=parallelogram;html=1;strokeWidth=2;perimeter=parallelogramPerimeter;whiteSpace=wrap;rounded=1;arcSize=12;size=0.23;strokeColor=#6c8ebf;align=center;verticalAlign=middle;fontFamily=Helvetica;fontSize=12;fontColor=default;fillColor=#dae8fc;" vertex="1" parent="WIyWlLk6GJQsqaUBKTNV-1">
          <mxGeometry x="159.52" y="1160" width="120" height="40" as="geometry" />
        </mxCell>
        <mxCell id="7oODVqWEoE9-mHDGX5qX-184" style="edgeStyle=orthogonalEdgeStyle;rounded=0;orthogonalLoop=1;jettySize=auto;html=1;exitX=1;exitY=0.5;exitDx=0;exitDy=0;exitPerimeter=0;entryX=1;entryY=0.5;entryDx=0;entryDy=0;fontFamily=Helvetica;fontSize=12;fontColor=default;startSize=8;endSize=8;" edge="1" parent="WIyWlLk6GJQsqaUBKTNV-1" source="7oODVqWEoE9-mHDGX5qX-178" target="7oODVqWEoE9-mHDGX5qX-124">
          <mxGeometry relative="1" as="geometry">
            <Array as="points">
              <mxPoint x="320" y="1260" />
              <mxPoint x="320" y="1110" />
            </Array>
          </mxGeometry>
        </mxCell>
        <mxCell id="7oODVqWEoE9-mHDGX5qX-185" value="No" style="edgeLabel;html=1;align=center;verticalAlign=middle;resizable=0;points=[];fontSize=12;strokeColor=#6c8ebf;strokeWidth=2;fontFamily=Helvetica;fontColor=default;fillColor=#dae8fc;" connectable="0" vertex="1" parent="7oODVqWEoE9-mHDGX5qX-184">
          <mxGeometry x="-0.8488" y="-1" relative="1" as="geometry">
            <mxPoint x="5" y="-1" as="offset" />
          </mxGeometry>
        </mxCell>
        <mxCell id="7oODVqWEoE9-mHDGX5qX-178" value="pilihan == &quot;n&quot;" style="strokeWidth=2;html=1;shape=mxgraph.flowchart.decision;whiteSpace=wrap;strokeColor=#6c8ebf;align=center;verticalAlign=middle;fontFamily=Helvetica;fontSize=12;fontColor=default;fillColor=#dae8fc;" vertex="1" parent="WIyWlLk6GJQsqaUBKTNV-1">
          <mxGeometry x="169.52" y="1230" width="100" height="60" as="geometry" />
        </mxCell>
        <mxCell id="7oODVqWEoE9-mHDGX5qX-179" style="edgeStyle=none;curved=1;rounded=0;orthogonalLoop=1;jettySize=auto;html=1;exitX=0.5;exitY=1;exitDx=0;exitDy=0;entryX=0.5;entryY=0;entryDx=0;entryDy=0;entryPerimeter=0;fontFamily=Helvetica;fontSize=12;fontColor=default;startSize=8;endSize=8;" edge="1" parent="WIyWlLk6GJQsqaUBKTNV-1" source="7oODVqWEoE9-mHDGX5qX-175" target="7oODVqWEoE9-mHDGX5qX-178">
          <mxGeometry relative="1" as="geometry" />
        </mxCell>
        <mxCell id="7oODVqWEoE9-mHDGX5qX-182" style="edgeStyle=none;curved=1;rounded=0;orthogonalLoop=1;jettySize=auto;html=1;exitX=0.5;exitY=1;exitDx=0;exitDy=0;exitPerimeter=0;entryX=0.5;entryY=0;entryDx=0;entryDy=0;entryPerimeter=0;fontFamily=Helvetica;fontSize=12;fontColor=default;startSize=8;endSize=8;" edge="1" parent="WIyWlLk6GJQsqaUBKTNV-1" source="7oODVqWEoE9-mHDGX5qX-178" target="7oODVqWEoE9-mHDGX5qX-183">
          <mxGeometry relative="1" as="geometry">
            <mxPoint x="220" y="1319" as="targetPoint" />
          </mxGeometry>
        </mxCell>
        <mxCell id="7oODVqWEoE9-mHDGX5qX-187" value="Yes" style="edgeLabel;html=1;align=center;verticalAlign=middle;resizable=0;points=[];fontSize=12;strokeColor=#6c8ebf;strokeWidth=2;fontFamily=Helvetica;fontColor=default;fillColor=#dae8fc;" connectable="0" vertex="1" parent="7oODVqWEoE9-mHDGX5qX-182">
          <mxGeometry x="-0.1079" relative="1" as="geometry">
            <mxPoint y="-3" as="offset" />
          </mxGeometry>
        </mxCell>
        <mxCell id="7oODVqWEoE9-mHDGX5qX-183" value="Selesai" style="strokeWidth=2;html=1;shape=mxgraph.flowchart.terminator;whiteSpace=wrap;fillColor=#e1d5e7;strokeColor=#9673a6;" vertex="1" parent="WIyWlLk6GJQsqaUBKTNV-1">
          <mxGeometry x="174.52" y="1330" width="90" height="40" as="geometry" />
        </mxCell>
        <mxCell id="7oODVqWEoE9-mHDGX5qX-188" value="Tambah Pengguna" style="rounded=1;whiteSpace=wrap;html=1;absoluteArcSize=1;arcSize=14;strokeWidth=2;strokeColor=#6c8ebf;align=center;verticalAlign=middle;fontFamily=Helvetica;fontSize=12;fontColor=default;fillColor=#dae8fc;" vertex="1" parent="WIyWlLk6GJQsqaUBKTNV-1">
          <mxGeometry x="662.5" y="555" width="95" height="40" as="geometry" />
        </mxCell>
        <mxCell id="7oODVqWEoE9-mHDGX5qX-261" style="edgeStyle=none;curved=1;rounded=0;orthogonalLoop=1;jettySize=auto;html=1;exitX=1;exitY=0.5;exitDx=0;exitDy=0;exitPerimeter=0;entryX=0;entryY=0.5;entryDx=0;entryDy=0;fontFamily=Helvetica;fontSize=12;fontColor=default;startSize=8;endSize=8;" edge="1" parent="WIyWlLk6GJQsqaUBKTNV-1" source="7oODVqWEoE9-mHDGX5qX-191" target="7oODVqWEoE9-mHDGX5qX-192">
          <mxGeometry relative="1" as="geometry" />
        </mxCell>
        <mxCell id="7oODVqWEoE9-mHDGX5qX-191" value="pilihan == &quot;2&quot;" style="strokeWidth=2;html=1;shape=mxgraph.flowchart.decision;whiteSpace=wrap;strokeColor=#6c8ebf;align=center;verticalAlign=middle;fontFamily=Helvetica;fontSize=12;fontColor=default;fillColor=#dae8fc;" vertex="1" parent="WIyWlLk6GJQsqaUBKTNV-1">
          <mxGeometry x="515" y="650" width="100" height="60" as="geometry" />
        </mxCell>
        <mxCell id="7oODVqWEoE9-mHDGX5qX-192" value="Lihat Pengguna" style="rounded=1;whiteSpace=wrap;html=1;absoluteArcSize=1;arcSize=14;strokeWidth=2;strokeColor=#6c8ebf;align=center;verticalAlign=middle;fontFamily=Helvetica;fontSize=12;fontColor=default;fillColor=#dae8fc;" vertex="1" parent="WIyWlLk6GJQsqaUBKTNV-1">
          <mxGeometry x="662.5" y="660" width="95" height="40" as="geometry" />
        </mxCell>
        <mxCell id="7oODVqWEoE9-mHDGX5qX-262" style="edgeStyle=none;curved=1;rounded=0;orthogonalLoop=1;jettySize=auto;html=1;exitX=1;exitY=0.5;exitDx=0;exitDy=0;exitPerimeter=0;entryX=0;entryY=0.5;entryDx=0;entryDy=0;fontFamily=Helvetica;fontSize=12;fontColor=default;startSize=8;endSize=8;" edge="1" parent="WIyWlLk6GJQsqaUBKTNV-1" source="7oODVqWEoE9-mHDGX5qX-194" target="7oODVqWEoE9-mHDGX5qX-195">
          <mxGeometry relative="1" as="geometry" />
        </mxCell>
        <mxCell id="7oODVqWEoE9-mHDGX5qX-194" value="pilihan == &quot;3&quot;" style="strokeWidth=2;html=1;shape=mxgraph.flowchart.decision;whiteSpace=wrap;strokeColor=#6c8ebf;align=center;verticalAlign=middle;fontFamily=Helvetica;fontSize=12;fontColor=default;fillColor=#dae8fc;" vertex="1" parent="WIyWlLk6GJQsqaUBKTNV-1">
          <mxGeometry x="515" y="750" width="100" height="60" as="geometry" />
        </mxCell>
        <mxCell id="7oODVqWEoE9-mHDGX5qX-195" value="Edit Pengguna" style="rounded=1;whiteSpace=wrap;html=1;absoluteArcSize=1;arcSize=14;strokeWidth=2;strokeColor=#6c8ebf;align=center;verticalAlign=middle;fontFamily=Helvetica;fontSize=12;fontColor=default;fillColor=#dae8fc;" vertex="1" parent="WIyWlLk6GJQsqaUBKTNV-1">
          <mxGeometry x="662.5" y="760" width="95" height="40" as="geometry" />
        </mxCell>
        <mxCell id="7oODVqWEoE9-mHDGX5qX-263" style="edgeStyle=none;curved=1;rounded=0;orthogonalLoop=1;jettySize=auto;html=1;exitX=1;exitY=0.5;exitDx=0;exitDy=0;exitPerimeter=0;entryX=0;entryY=0.5;entryDx=0;entryDy=0;fontFamily=Helvetica;fontSize=12;fontColor=default;startSize=8;endSize=8;" edge="1" parent="WIyWlLk6GJQsqaUBKTNV-1" source="7oODVqWEoE9-mHDGX5qX-209" target="7oODVqWEoE9-mHDGX5qX-210">
          <mxGeometry relative="1" as="geometry" />
        </mxCell>
        <mxCell id="7oODVqWEoE9-mHDGX5qX-209" value="pilihan == &quot;4&quot;" style="strokeWidth=2;html=1;shape=mxgraph.flowchart.decision;whiteSpace=wrap;strokeColor=#6c8ebf;align=center;verticalAlign=middle;fontFamily=Helvetica;fontSize=12;fontColor=default;fillColor=#dae8fc;" vertex="1" parent="WIyWlLk6GJQsqaUBKTNV-1">
          <mxGeometry x="515" y="850" width="100" height="60" as="geometry" />
        </mxCell>
        <mxCell id="7oODVqWEoE9-mHDGX5qX-210" value="Hapus&lt;div&gt;Pengguna&lt;/div&gt;" style="rounded=1;whiteSpace=wrap;html=1;absoluteArcSize=1;arcSize=14;strokeWidth=2;strokeColor=#6c8ebf;align=center;verticalAlign=middle;fontFamily=Helvetica;fontSize=12;fontColor=default;fillColor=#dae8fc;" vertex="1" parent="WIyWlLk6GJQsqaUBKTNV-1">
          <mxGeometry x="662.5" y="860" width="95" height="40" as="geometry" />
        </mxCell>
        <mxCell id="7oODVqWEoE9-mHDGX5qX-214" value="pilihan == &quot;n&quot;" style="strokeWidth=2;html=1;shape=mxgraph.flowchart.decision;whiteSpace=wrap;strokeColor=#6c8ebf;align=center;verticalAlign=middle;fontFamily=Helvetica;fontSize=12;fontColor=default;fillColor=#dae8fc;" vertex="1" parent="WIyWlLk6GJQsqaUBKTNV-1">
          <mxGeometry x="672.5" y="280" width="107.5" height="70" as="geometry" />
        </mxCell>
        <mxCell id="7oODVqWEoE9-mHDGX5qX-215" style="edgeStyle=none;curved=1;rounded=0;orthogonalLoop=1;jettySize=auto;html=1;exitX=1;exitY=0.5;exitDx=0;exitDy=0;exitPerimeter=0;entryX=0;entryY=0.5;entryDx=0;entryDy=0;entryPerimeter=0;fontFamily=Helvetica;fontSize=12;fontColor=default;startSize=8;endSize=8;" edge="1" parent="WIyWlLk6GJQsqaUBKTNV-1" source="7oODVqWEoE9-mHDGX5qX-81" target="7oODVqWEoE9-mHDGX5qX-214">
          <mxGeometry relative="1" as="geometry" />
        </mxCell>
        <mxCell id="7oODVqWEoE9-mHDGX5qX-219" value="No" style="edgeLabel;html=1;align=center;verticalAlign=middle;resizable=0;points=[];fontSize=12;strokeColor=#6c8ebf;strokeWidth=2;fontFamily=Helvetica;fontColor=default;fillColor=#dae8fc;" connectable="0" vertex="1" parent="7oODVqWEoE9-mHDGX5qX-215">
          <mxGeometry x="-0.1852" y="2" relative="1" as="geometry">
            <mxPoint y="2" as="offset" />
          </mxGeometry>
        </mxCell>
        <mxCell id="7oODVqWEoE9-mHDGX5qX-222" value="pilihan == &quot;n&quot;" style="strokeWidth=2;html=1;shape=mxgraph.flowchart.decision;whiteSpace=wrap;strokeColor=#6c8ebf;align=center;verticalAlign=middle;fontFamily=Helvetica;fontSize=12;fontColor=default;fillColor=#dae8fc;" vertex="1" parent="WIyWlLk6GJQsqaUBKTNV-1">
          <mxGeometry x="515" y="950" width="100" height="60" as="geometry" />
        </mxCell>
        <mxCell id="7oODVqWEoE9-mHDGX5qX-237" style="edgeStyle=none;curved=1;rounded=0;orthogonalLoop=1;jettySize=auto;html=1;exitX=0.5;exitY=1;exitDx=0;exitDy=0;exitPerimeter=0;entryX=0.5;entryY=0;entryDx=0;entryDy=0;fontFamily=Helvetica;fontSize=12;fontColor=default;startSize=8;endSize=8;" edge="1" parent="WIyWlLk6GJQsqaUBKTNV-1" source="7oODVqWEoE9-mHDGX5qX-234" target="7oODVqWEoE9-mHDGX5qX-124">
          <mxGeometry relative="1" as="geometry" />
        </mxCell>
        <mxCell id="7oODVqWEoE9-mHDGX5qX-238" value="No" style="edgeLabel;html=1;align=center;verticalAlign=middle;resizable=0;points=[];fontSize=12;strokeColor=#6c8ebf;strokeWidth=2;fontFamily=Helvetica;fontColor=default;fillColor=#dae8fc;" connectable="0" vertex="1" parent="7oODVqWEoE9-mHDGX5qX-237">
          <mxGeometry x="-0.2009" y="-1" relative="1" as="geometry">
            <mxPoint as="offset" />
          </mxGeometry>
        </mxCell>
        <mxCell id="7oODVqWEoE9-mHDGX5qX-234" value="pilihan == &quot;n&quot;" style="strokeWidth=2;html=1;shape=mxgraph.flowchart.decision;whiteSpace=wrap;strokeColor=#6c8ebf;align=center;verticalAlign=middle;fontFamily=Helvetica;fontSize=12;fontColor=default;fillColor=#dae8fc;" vertex="1" parent="WIyWlLk6GJQsqaUBKTNV-1">
          <mxGeometry x="169.46" y="990" width="100" height="60" as="geometry" />
        </mxCell>
        <mxCell id="7oODVqWEoE9-mHDGX5qX-235" style="edgeStyle=none;curved=1;rounded=0;orthogonalLoop=1;jettySize=auto;html=1;exitX=0.5;exitY=1;exitDx=0;exitDy=0;exitPerimeter=0;entryX=0.5;entryY=0;entryDx=0;entryDy=0;entryPerimeter=0;fontFamily=Helvetica;fontSize=12;fontColor=default;startSize=8;endSize=8;" edge="1" parent="WIyWlLk6GJQsqaUBKTNV-1" source="7oODVqWEoE9-mHDGX5qX-159" target="7oODVqWEoE9-mHDGX5qX-234">
          <mxGeometry relative="1" as="geometry" />
        </mxCell>
        <mxCell id="7oODVqWEoE9-mHDGX5qX-239" value="No" style="edgeLabel;html=1;align=center;verticalAlign=middle;resizable=0;points=[];fontSize=12;strokeColor=#6c8ebf;strokeWidth=2;fontFamily=Helvetica;fontColor=default;fillColor=#dae8fc;" connectable="0" vertex="1" parent="7oODVqWEoE9-mHDGX5qX-235">
          <mxGeometry x="-0.0667" relative="1" as="geometry">
            <mxPoint y="-4" as="offset" />
          </mxGeometry>
        </mxCell>
        <mxCell id="7oODVqWEoE9-mHDGX5qX-240" style="edgeStyle=orthogonalEdgeStyle;rounded=0;orthogonalLoop=1;jettySize=auto;html=1;exitX=0;exitY=0.5;exitDx=0;exitDy=0;exitPerimeter=0;entryX=0;entryY=0.5;entryDx=0;entryDy=0;entryPerimeter=0;fontFamily=Helvetica;fontSize=12;fontColor=default;startSize=8;endSize=8;" edge="1" parent="WIyWlLk6GJQsqaUBKTNV-1" source="7oODVqWEoE9-mHDGX5qX-234" target="7oODVqWEoE9-mHDGX5qX-183">
          <mxGeometry relative="1" as="geometry">
            <Array as="points">
              <mxPoint x="130" y="1020" />
              <mxPoint x="130" y="1350" />
            </Array>
          </mxGeometry>
        </mxCell>
        <mxCell id="7oODVqWEoE9-mHDGX5qX-248" value="Yes" style="edgeLabel;html=1;align=center;verticalAlign=middle;resizable=0;points=[];fontSize=12;strokeColor=#6c8ebf;strokeWidth=2;fontFamily=Helvetica;fontColor=default;fillColor=#dae8fc;" connectable="0" vertex="1" parent="7oODVqWEoE9-mHDGX5qX-240">
          <mxGeometry x="-0.8938" y="1" relative="1" as="geometry">
            <mxPoint x="3" y="-1" as="offset" />
          </mxGeometry>
        </mxCell>
        <mxCell id="7oODVqWEoE9-mHDGX5qX-243" style="edgeStyle=none;curved=1;rounded=0;orthogonalLoop=1;jettySize=auto;html=1;exitX=0.5;exitY=1;exitDx=0;exitDy=0;exitPerimeter=0;entryX=0.5;entryY=0;entryDx=0;entryDy=0;fontFamily=Helvetica;fontSize=12;fontColor=default;startSize=8;endSize=8;" edge="1" parent="WIyWlLk6GJQsqaUBKTNV-1" source="7oODVqWEoE9-mHDGX5qX-241" target="7oODVqWEoE9-mHDGX5qX-99">
          <mxGeometry relative="1" as="geometry" />
        </mxCell>
        <mxCell id="7oODVqWEoE9-mHDGX5qX-247" value="No" style="edgeLabel;html=1;align=center;verticalAlign=middle;resizable=0;points=[];fontSize=12;strokeColor=#6c8ebf;strokeWidth=2;fontFamily=Helvetica;fontColor=default;fillColor=#dae8fc;" connectable="0" vertex="1" parent="7oODVqWEoE9-mHDGX5qX-243">
          <mxGeometry x="-0.2339" y="1" relative="1" as="geometry">
            <mxPoint x="-1" as="offset" />
          </mxGeometry>
        </mxCell>
        <mxCell id="7oODVqWEoE9-mHDGX5qX-241" value="pilihan == &quot;n&quot;" style="strokeWidth=2;html=1;shape=mxgraph.flowchart.decision;whiteSpace=wrap;strokeColor=#6c8ebf;align=center;verticalAlign=middle;fontFamily=Helvetica;fontSize=12;fontColor=default;fillColor=#dae8fc;" vertex="1" parent="WIyWlLk6GJQsqaUBKTNV-1">
          <mxGeometry x="169.46" y="640" width="100" height="60" as="geometry" />
        </mxCell>
        <mxCell id="7oODVqWEoE9-mHDGX5qX-245" style="edgeStyle=orthogonalEdgeStyle;rounded=0;orthogonalLoop=1;jettySize=auto;html=1;exitX=0;exitY=0.5;exitDx=0;exitDy=0;exitPerimeter=0;entryX=0;entryY=0.5;entryDx=0;entryDy=0;entryPerimeter=0;fontFamily=Helvetica;fontSize=12;fontColor=default;startSize=8;endSize=8;" edge="1" parent="WIyWlLk6GJQsqaUBKTNV-1" source="7oODVqWEoE9-mHDGX5qX-241" target="7oODVqWEoE9-mHDGX5qX-183">
          <mxGeometry relative="1" as="geometry">
            <Array as="points">
              <mxPoint x="130" y="670" />
              <mxPoint x="130" y="1350" />
            </Array>
          </mxGeometry>
        </mxCell>
        <mxCell id="7oODVqWEoE9-mHDGX5qX-246" value="Yes" style="edgeLabel;html=1;align=center;verticalAlign=middle;resizable=0;points=[];fontSize=12;strokeColor=#6c8ebf;strokeWidth=2;fontFamily=Helvetica;fontColor=default;fillColor=#dae8fc;" connectable="0" vertex="1" parent="7oODVqWEoE9-mHDGX5qX-245">
          <mxGeometry x="-0.9496" y="-1" relative="1" as="geometry">
            <mxPoint as="offset" />
          </mxGeometry>
        </mxCell>
        <mxCell id="7oODVqWEoE9-mHDGX5qX-253" style="edgeStyle=none;curved=1;rounded=0;orthogonalLoop=1;jettySize=auto;html=1;exitX=0.5;exitY=1;exitDx=0;exitDy=0;exitPerimeter=0;entryX=0.5;entryY=0;entryDx=0;entryDy=0;entryPerimeter=0;fontFamily=Helvetica;fontSize=12;fontColor=default;startSize=8;endSize=8;" edge="1" parent="WIyWlLk6GJQsqaUBKTNV-1" source="7oODVqWEoE9-mHDGX5qX-143" target="7oODVqWEoE9-mHDGX5qX-241">
          <mxGeometry relative="1" as="geometry" />
        </mxCell>
        <mxCell id="7oODVqWEoE9-mHDGX5qX-254" value="No" style="edgeLabel;html=1;align=center;verticalAlign=middle;resizable=0;points=[];fontSize=12;strokeColor=#6c8ebf;strokeWidth=2;fontFamily=Helvetica;fontColor=default;fillColor=#dae8fc;" connectable="0" vertex="1" parent="7oODVqWEoE9-mHDGX5qX-253">
          <mxGeometry x="-0.1897" y="-1" relative="1" as="geometry">
            <mxPoint as="offset" />
          </mxGeometry>
        </mxCell>
        <mxCell id="7oODVqWEoE9-mHDGX5qX-256" style="edgeStyle=none;curved=1;rounded=0;orthogonalLoop=1;jettySize=auto;html=1;exitX=0.5;exitY=1;exitDx=0;exitDy=0;exitPerimeter=0;entryX=0.5;entryY=0;entryDx=0;entryDy=0;entryPerimeter=0;fontFamily=Helvetica;fontSize=12;fontColor=default;startSize=8;endSize=8;" edge="1" parent="WIyWlLk6GJQsqaUBKTNV-1" source="7oODVqWEoE9-mHDGX5qX-129" target="7oODVqWEoE9-mHDGX5qX-191">
          <mxGeometry relative="1" as="geometry" />
        </mxCell>
        <mxCell id="7oODVqWEoE9-mHDGX5qX-257" style="edgeStyle=none;curved=1;rounded=0;orthogonalLoop=1;jettySize=auto;html=1;exitX=0.5;exitY=1;exitDx=0;exitDy=0;exitPerimeter=0;entryX=0.5;entryY=0;entryDx=0;entryDy=0;entryPerimeter=0;fontFamily=Helvetica;fontSize=12;fontColor=default;startSize=8;endSize=8;" edge="1" parent="WIyWlLk6GJQsqaUBKTNV-1" source="7oODVqWEoE9-mHDGX5qX-191" target="7oODVqWEoE9-mHDGX5qX-194">
          <mxGeometry relative="1" as="geometry" />
        </mxCell>
        <mxCell id="7oODVqWEoE9-mHDGX5qX-258" style="edgeStyle=none;curved=1;rounded=0;orthogonalLoop=1;jettySize=auto;html=1;exitX=0.5;exitY=1;exitDx=0;exitDy=0;exitPerimeter=0;entryX=0.5;entryY=0;entryDx=0;entryDy=0;entryPerimeter=0;fontFamily=Helvetica;fontSize=12;fontColor=default;startSize=8;endSize=8;" edge="1" parent="WIyWlLk6GJQsqaUBKTNV-1" source="7oODVqWEoE9-mHDGX5qX-194" target="7oODVqWEoE9-mHDGX5qX-209">
          <mxGeometry relative="1" as="geometry" />
        </mxCell>
        <mxCell id="7oODVqWEoE9-mHDGX5qX-259" style="edgeStyle=none;curved=1;rounded=0;orthogonalLoop=1;jettySize=auto;html=1;exitX=0.5;exitY=1;exitDx=0;exitDy=0;exitPerimeter=0;entryX=0.5;entryY=0;entryDx=0;entryDy=0;entryPerimeter=0;fontFamily=Helvetica;fontSize=12;fontColor=default;startSize=8;endSize=8;" edge="1" parent="WIyWlLk6GJQsqaUBKTNV-1" source="7oODVqWEoE9-mHDGX5qX-209" target="7oODVqWEoE9-mHDGX5qX-222">
          <mxGeometry relative="1" as="geometry" />
        </mxCell>
        <mxCell id="7oODVqWEoE9-mHDGX5qX-265" style="edgeStyle=orthogonalEdgeStyle;rounded=0;orthogonalLoop=1;jettySize=auto;html=1;exitX=0.5;exitY=1;exitDx=0;exitDy=0;exitPerimeter=0;entryX=1;entryY=0.5;entryDx=0;entryDy=0;entryPerimeter=0;fontFamily=Helvetica;fontSize=12;fontColor=default;startSize=8;endSize=8;" edge="1" parent="WIyWlLk6GJQsqaUBKTNV-1" source="7oODVqWEoE9-mHDGX5qX-222" target="7oODVqWEoE9-mHDGX5qX-183">
          <mxGeometry relative="1" as="geometry" />
        </mxCell>
        <mxCell id="7oODVqWEoE9-mHDGX5qX-266" style="edgeStyle=orthogonalEdgeStyle;rounded=0;orthogonalLoop=1;jettySize=auto;html=1;exitX=1;exitY=0.5;exitDx=0;exitDy=0;entryX=1;entryY=0.5;entryDx=0;entryDy=0;entryPerimeter=0;fontFamily=Helvetica;fontSize=12;fontColor=default;startSize=8;endSize=8;" edge="1" parent="WIyWlLk6GJQsqaUBKTNV-1" source="7oODVqWEoE9-mHDGX5qX-210" target="7oODVqWEoE9-mHDGX5qX-183">
          <mxGeometry relative="1" as="geometry" />
        </mxCell>
      </root>
    </mxGraphModel>
  </diagram>
</mxfile>
